<svg xmlns="http://www.w3.org/2000/svg" viewBox="0 0 192.38 65.67"><defs><style>.cls-1{fill:#fff;}.cls-2{fill:#1d1e1c;}</style></defs><g id="Layer_1" data-name="Layer 1"><path class="cls-1" d="M3.06,33.34A30.34,30.34,0,1,1,33.4,63.67,30.34,30.34,0,0,1,3.06,33.34Z"/><path class="cls-2" d="M38.39,11.68a20.32,20.32,0,0,1,10.07,4.9v8.23h-.89L38.39,12.59Zm-3,.52h-.11c-6.45,0-10.15,8.92-10,21v0c-.18,12,3.52,21,10,21h.11v.93c-9.69.66-22.81-6.73-22.62-21.89v0C12.54,18,25.66,10.61,35.35,11.27ZM51.5,35l-3,1.33V50a23.89,23.89,0,0,1-10.07,4.9V36.07l-3-1.11v-.84H51.5Z"/><polygon class="cls-1" points="85.79 52.92 85.79 54.02 95.52 54.02 96.27 38.05 95.29 38.05 85.79 52.92"/><polygon class="cls-1" points="63.83 13.28 67.71 14.14 67.71 52.17 63.83 53.04 63.83 54.02 79.92 54.02 79.92 14.09 84.09 13.28 84.09 12.29 63.83 12.29 63.83 13.28"/><path class="cls-1" d="M129.38,10.15v1l3.53,1.34V52.05a24.58,24.58,0,0,0,10.36,2.68V52.86s0-.06,0-.1V26.64s-.05,0,0-.05V8.47L142,8.3Z"/><path class="cls-1" d="M152.7,21.55a12.23,12.23,0,0,0-6.37,1.78v.92l.53,0c3.59,0,5.67,4.61,5.67,14.05,0,11.63-2.23,15.31-5.75,15.31l-.45,0v1.26h.06c10.31,0,17.25-5.32,17.25-17.59C163.64,25.72,158.72,21.55,152.7,21.55Z"/><path class="cls-1" d="M167.88,43.78h-1l.35,9.37a28,28,0,0,0,8.34,1.55v-.87Z"/><path class="cls-1" d="M181.35,33.24l-1.79-.81c-3.88-1.79-5.21-2.72-5.21-5.55,0-2.21,1-3.83,3.23-4.27V21.53c-7,.41-11.28,4.15-11.28,10.27,0,5.32,3.36,8.16,9.15,10.88l1.91.87c3.65,1.73,5,2.72,5,5.32a4.64,4.64,0,0,1-3.6,4.91v1c7.59-.4,11.65-4.26,11.65-10.44C190.44,38.51,187.31,36,181.35,33.24Z"/><path class="cls-1" d="M187.2,31.28h1l-.29-8.74a31.93,31.93,0,0,0-7.31-1v1Z"/><path class="cls-1" d="M108.45,22.81v-1a39.86,39.86,0,0,0-7.33,1.7l-.23,9.84h.82Z"/><path class="cls-1" d="M126.25,51.71V31.1c0-7.18-6.18-9.39-14.75-9.39v1c2.93.43,4.1,2.55,4.1,8.45V51c0,2.18,3.19,3.82,7.41,3.82a13.21,13.21,0,0,0,6.31-1.44v-.81Z"/><path class="cls-1" d="M108.66,36.72c-6.72,1.27-10,4.16-10,9.49,0,5.5,3.47,8.68,8.56,8.68a11.14,11.14,0,0,0,5.37-1.2v-.94c-2.18-.25-3.69-3.63-3.69-8.51,0-4.32,1.4-6.45,3.69-7.27V36Z"/></g></svg>